<mxfile host="www.draw.io" modified="2019-10-30T16:49:34.200Z" agent="Mozilla/5.0 (Windows NT 10.0; Win64; x64) AppleWebKit/537.36 (KHTML, like Gecko) Chrome/78.0.3904.70 Safari/537.36" etag="Un7VORefBl1u-NB0Kt69" version="12.1.9" type="github" pages="1">
  <diagram id="v-m0zCEiFKJnq1W9DyKo" name="Page-1">
    <mxGraphModel dx="1422" dy="794" grid="1" gridSize="10" guides="1" tooltips="1" connect="1" arrows="1" fold="1" page="1" pageScale="1" pageWidth="1100" pageHeight="850" math="0" shadow="0">
      <root>
        <mxCell id="0"/>
        <mxCell id="1" parent="0"/>
        <mxCell id="0yQHLkLhNADpxCJvxs6u-4" value="" style="rounded=0;whiteSpace=wrap;html=1;fillColor=#f5f5f5;strokeColor=#666666;fontColor=#333333;" parent="1" vertex="1">
          <mxGeometry x="200" y="70" width="990" height="620" as="geometry"/>
        </mxCell>
        <mxCell id="VebY4ea3FeKf3zZTdMaN-1" value="" style="rounded=1;whiteSpace=wrap;html=1;fillColor=#e1d5e7;strokeColor=#9673a6;fontStyle=1" vertex="1" parent="1">
          <mxGeometry x="620" y="242.5" width="220" height="165" as="geometry"/>
        </mxCell>
        <mxCell id="0yQHLkLhNADpxCJvxs6u-16" style="edgeStyle=orthogonalEdgeStyle;rounded=0;orthogonalLoop=1;jettySize=auto;html=1;exitX=0.25;exitY=1;exitDx=0;exitDy=0;entryX=0;entryY=0.75;entryDx=0;entryDy=0;" parent="1" source="0yQHLkLhNADpxCJvxs6u-9" target="0yQHLkLhNADpxCJvxs6u-15" edge="1">
          <mxGeometry relative="1" as="geometry"/>
        </mxCell>
        <mxCell id="0yQHLkLhNADpxCJvxs6u-17" style="edgeStyle=orthogonalEdgeStyle;rounded=0;orthogonalLoop=1;jettySize=auto;html=1;exitX=0.5;exitY=1;exitDx=0;exitDy=0;entryX=0;entryY=0.25;entryDx=0;entryDy=0;" parent="1" source="0yQHLkLhNADpxCJvxs6u-9" target="0yQHLkLhNADpxCJvxs6u-15" edge="1">
          <mxGeometry relative="1" as="geometry"/>
        </mxCell>
        <mxCell id="0yQHLkLhNADpxCJvxs6u-19" style="edgeStyle=orthogonalEdgeStyle;rounded=0;orthogonalLoop=1;jettySize=auto;html=1;exitX=1;exitY=0.25;exitDx=0;exitDy=0;entryX=0.75;entryY=0;entryDx=0;entryDy=0;" parent="1" source="0yQHLkLhNADpxCJvxs6u-9" target="0yQHLkLhNADpxCJvxs6u-15" edge="1">
          <mxGeometry relative="1" as="geometry"/>
        </mxCell>
        <mxCell id="0yQHLkLhNADpxCJvxs6u-36" style="edgeStyle=orthogonalEdgeStyle;rounded=0;orthogonalLoop=1;jettySize=auto;html=1;exitX=1;exitY=0.75;exitDx=0;exitDy=0;fontSize=12;" parent="1" source="0yQHLkLhNADpxCJvxs6u-9" target="0yQHLkLhNADpxCJvxs6u-15" edge="1">
          <mxGeometry relative="1" as="geometry"/>
        </mxCell>
        <mxCell id="0yQHLkLhNADpxCJvxs6u-9" value="ROV &amp;lt;-&amp;gt; Base station Comms Manager ROS Node" style="rounded=1;whiteSpace=wrap;html=1;fillColor=#D5E8D4;strokeColor=#d6b656;fontStyle=1" parent="1" vertex="1">
          <mxGeometry x="210" y="100" width="120" height="80" as="geometry"/>
        </mxCell>
        <mxCell id="0yQHLkLhNADpxCJvxs6u-12" value="Base Station Computer" style="text;html=1;strokeColor=none;fillColor=none;align=center;verticalAlign=middle;whiteSpace=wrap;rounded=0;fontStyle=1;fontSize=15;" parent="1" vertex="1">
          <mxGeometry x="1010" y="660" width="170" height="20" as="geometry"/>
        </mxCell>
        <mxCell id="0yQHLkLhNADpxCJvxs6u-38" style="edgeStyle=orthogonalEdgeStyle;rounded=0;orthogonalLoop=1;jettySize=auto;html=1;exitX=0.5;exitY=1;exitDx=0;exitDy=0;entryX=0.5;entryY=0;entryDx=0;entryDy=0;fontSize=12;" parent="1" source="0yQHLkLhNADpxCJvxs6u-15" target="0yQHLkLhNADpxCJvxs6u-21" edge="1">
          <mxGeometry relative="1" as="geometry"/>
        </mxCell>
        <mxCell id="0yQHLkLhNADpxCJvxs6u-15" value="mongodb_store ROS Node" style="rounded=1;whiteSpace=wrap;html=1;fillColor=#D5E8D4;strokeColor=#d6b656;fontStyle=1" parent="1" vertex="1">
          <mxGeometry x="435" y="280" width="130" height="90" as="geometry"/>
        </mxCell>
        <mxCell id="VebY4ea3FeKf3zZTdMaN-5" style="edgeStyle=orthogonalEdgeStyle;rounded=0;orthogonalLoop=1;jettySize=auto;html=1;exitX=1;exitY=0.5;exitDx=0;exitDy=0;" edge="1" parent="1" source="0yQHLkLhNADpxCJvxs6u-21" target="0yQHLkLhNADpxCJvxs6u-23">
          <mxGeometry relative="1" as="geometry"/>
        </mxCell>
        <mxCell id="0yQHLkLhNADpxCJvxs6u-21" value="MongoDB Database" style="shape=cylinder;whiteSpace=wrap;html=1;boundedLbl=1;backgroundOutline=1;fillColor=#e1d5e7;strokeColor=#9673a6;fontStyle=1;" parent="1" vertex="1">
          <mxGeometry x="442.5" y="513" width="115" height="140" as="geometry"/>
        </mxCell>
        <mxCell id="0yQHLkLhNADpxCJvxs6u-23" value="* Database To CSV Data Export Script" style="rounded=1;whiteSpace=wrap;html=1;fillColor=#D5E8D4;strokeColor=#d6b656;fontStyle=1" parent="1" vertex="1">
          <mxGeometry x="662.5" y="280" width="130" height="90" as="geometry"/>
        </mxCell>
        <mxCell id="0yQHLkLhNADpxCJvxs6u-25" value="CSV Data File" style="shape=note;whiteSpace=wrap;html=1;backgroundOutline=1;darkOpacity=0.05;fillColor=#e1d5e7;strokeColor=#9673a6;fontStyle=1" parent="1" vertex="1">
          <mxGeometry x="1000" y="513" width="80" height="100" as="geometry"/>
        </mxCell>
        <mxCell id="0yQHLkLhNADpxCJvxs6u-28" value="MongoDB Queries" style="text;html=1;strokeColor=none;fillColor=none;align=center;verticalAlign=middle;whiteSpace=wrap;rounded=0;fontStyle=1" parent="1" vertex="1">
          <mxGeometry x="500" y="425" width="90" height="20" as="geometry"/>
        </mxCell>
        <mxCell id="0yQHLkLhNADpxCJvxs6u-29" value="MongoDB Queries" style="text;html=1;strokeColor=none;fillColor=none;align=center;verticalAlign=middle;whiteSpace=wrap;rounded=0;fontStyle=1" parent="1" vertex="1">
          <mxGeometry x="565" y="550" width="90" height="20" as="geometry"/>
        </mxCell>
        <mxCell id="0yQHLkLhNADpxCJvxs6u-30" value="HTTP Request" style="text;html=1;strokeColor=none;fillColor=none;align=center;verticalAlign=middle;whiteSpace=wrap;rounded=0;fontStyle=1;rotation=0;" parent="1" vertex="1">
          <mxGeometry x="819" y="295" width="130" height="20" as="geometry"/>
        </mxCell>
        <mxCell id="0yQHLkLhNADpxCJvxs6u-33" value="Still Frames (ros_image topic)" style="text;html=1;strokeColor=none;fillColor=none;align=center;verticalAlign=middle;whiteSpace=wrap;rounded=0;fontSize=12;fontStyle=1" parent="1" vertex="1">
          <mxGeometry x="335" y="90" width="190" height="20" as="geometry"/>
        </mxCell>
        <mxCell id="0yQHLkLhNADpxCJvxs6u-35" value="Pressure Data (Float32 topic)" style="text;html=1;strokeColor=none;fillColor=none;align=center;verticalAlign=middle;whiteSpace=wrap;rounded=0;fontSize=12;fontStyle=1" parent="1" vertex="1">
          <mxGeometry x="320" y="170" width="180" height="20" as="geometry"/>
        </mxCell>
        <mxCell id="0yQHLkLhNADpxCJvxs6u-37" value="Depth Data (Float32 topic)" style="text;html=1;strokeColor=none;fillColor=none;align=center;verticalAlign=middle;whiteSpace=wrap;rounded=0;fontSize=12;fontStyle=1" parent="1" vertex="1">
          <mxGeometry x="275" y="275" width="160" height="20" as="geometry"/>
        </mxCell>
        <mxCell id="0yQHLkLhNADpxCJvxs6u-40" value="Temperature Data (Float32 topic)" style="text;html=1;strokeColor=none;fillColor=none;align=center;verticalAlign=middle;whiteSpace=wrap;rounded=0;fontSize=12;fontStyle=1" parent="1" vertex="1">
          <mxGeometry x="230" y="350" width="200" height="20" as="geometry"/>
        </mxCell>
        <mxCell id="0yQHLkLhNADpxCJvxs6u-41" value="&lt;b&gt;* Note: Database to CSV export script will allow user to select both date ranges and data fields to export.&lt;/b&gt;" style="text;html=1;strokeColor=none;fillColor=none;align=center;verticalAlign=middle;whiteSpace=wrap;rounded=0;fontSize=12;" parent="1" vertex="1">
          <mxGeometry x="830" y="700" width="360" height="20" as="geometry"/>
        </mxCell>
        <mxCell id="VebY4ea3FeKf3zZTdMaN-4" value="HUD Backend" style="text;html=1;strokeColor=none;fillColor=none;align=center;verticalAlign=middle;whiteSpace=wrap;rounded=0;fontStyle=1" vertex="1" parent="1">
          <mxGeometry x="740" y="385" width="90" height="20" as="geometry"/>
        </mxCell>
        <mxCell id="VebY4ea3FeKf3zZTdMaN-7" value="" style="rounded=1;whiteSpace=wrap;html=1;fillColor=#e1d5e7;strokeColor=#9673a6;fontStyle=1" vertex="1" parent="1">
          <mxGeometry x="930" y="242.5" width="220" height="165" as="geometry"/>
        </mxCell>
        <mxCell id="VebY4ea3FeKf3zZTdMaN-8" value="HUD Front End" style="text;html=1;strokeColor=none;fillColor=none;align=center;verticalAlign=middle;whiteSpace=wrap;rounded=0;fontStyle=1" vertex="1" parent="1">
          <mxGeometry x="1055" y="380" width="90" height="20" as="geometry"/>
        </mxCell>
        <mxCell id="VebY4ea3FeKf3zZTdMaN-11" style="edgeStyle=orthogonalEdgeStyle;rounded=0;orthogonalLoop=1;jettySize=auto;html=1;exitX=0.5;exitY=1;exitDx=0;exitDy=0;" edge="1" parent="1" source="VebY4ea3FeKf3zZTdMaN-9" target="0yQHLkLhNADpxCJvxs6u-25">
          <mxGeometry relative="1" as="geometry"/>
        </mxCell>
        <mxCell id="VebY4ea3FeKf3zZTdMaN-9" value="PHP Script (To Call CSV Export Script)" style="rounded=1;whiteSpace=wrap;html=1;fillColor=#D5E8D4;strokeColor=#d6b656;fontStyle=1" vertex="1" parent="1">
          <mxGeometry x="975" y="280" width="130" height="90" as="geometry"/>
        </mxCell>
        <mxCell id="VebY4ea3FeKf3zZTdMaN-10" value="" style="endArrow=classic;startArrow=classic;html=1;exitX=1;exitY=0.5;exitDx=0;exitDy=0;entryX=0;entryY=0.5;entryDx=0;entryDy=0;" edge="1" parent="1" source="0yQHLkLhNADpxCJvxs6u-23" target="VebY4ea3FeKf3zZTdMaN-9">
          <mxGeometry width="50" height="50" relative="1" as="geometry">
            <mxPoint x="910" y="480" as="sourcePoint"/>
            <mxPoint x="960" y="430" as="targetPoint"/>
          </mxGeometry>
        </mxCell>
        <mxCell id="VebY4ea3FeKf3zZTdMaN-12" value="FTP Transaction" style="text;html=1;strokeColor=none;fillColor=none;align=center;verticalAlign=middle;whiteSpace=wrap;rounded=0;fontStyle=1;rotation=0;" vertex="1" parent="1">
          <mxGeometry x="1030" y="446.5" width="130" height="20" as="geometry"/>
        </mxCell>
      </root>
    </mxGraphModel>
  </diagram>
</mxfile>
